
<svg width="182px" height="40px" viewBox="0 0 1172 279" version="1.1" xmlns="http://www.w3.org/2000/svg" xmlns:xlink="http://www.w3.org/1999/xlink">
    <!-- Generator: Sketch 43 (38999) - http://www.bohemiancoding.com/sketch -->
    <desc>Created with Sketch.</desc>
    <defs>
        <linearGradient x1="61.2346759%" y1="43.69%" x2="74.7064382%" y2="80.24%" id="linearGradient-1">
            <stop stop-color="#EFF7FC" offset="0%"></stop>
            <stop stop-color="#FFFFFF" offset="100%"></stop>
        </linearGradient>
        <text id="text-2" font-family="Ubuntu-Bold, Ubuntu" font-size="150" font-weight="bold" letter-spacing="0.296296388" fill="#FFFFFF">
            <tspan x="111.533149" y="180">MANDALO!</tspan>
        </text>
        <filter x="-0.7%" y="-3.0%" width="101.3%" height="108.3%" filterUnits="objectBoundingBox" id="filter-3">
            <feOffset dx="0" dy="2" in="SourceAlpha" result="shadowOffsetOuter1"></feOffset>
            <feGaussianBlur stdDeviation="2" in="shadowOffsetOuter1" result="shadowBlurOuter1"></feGaussianBlur>
            <feColorMatrix values="0 0 0 0 0   0 0 0 0 0   0 0 0 0 0  0 0 0 0.5 0" type="matrix" in="shadowBlurOuter1"></feColorMatrix>
        </filter>
    </defs>
    <g id="Page-1" stroke="none" stroke-width="1" fill="none" fill-rule="evenodd">
        <g id="Desktop-HD" transform="translate(-192.000000, -373.000000)">
            <g id="Group-2" transform="translate(76.000000, 373.000000)">
                <g id="Group" transform="translate(953.000000, 0.000000)">
                    <path d="M126.44578,262.043211 C116.496525,262.043211 118.187151,258.302291 114.755738,248.868824 L85.4981311,152.98314 L310.710198,19.93725" id="Shape" fill="#7F1919" fill-rule="nonzero"></path>
                    <polyline id="Star" fill="#FFFFFF" points="136.845986 189.478893 130.041092 200.211371 125.625717 188.304546 113.272663 185.176395 123.280042 177.315342 122.450328 164.649561 133.050604 171.697988 144.890867 166.998255 141.434819 179.215475 149.582217 188.976662"></polyline>
                    <path d="M126.44578,262.043211 C134.123464,262.043211 137.515721,258.546691 141.801148,254.397759 L182.748796,214.748448 L131.671723,184.077446" id="Shape" fill="#2531BA" fill-rule="nonzero"></path>
                    <path d="M131.666605,184.085091 L255.430873,275.139869 C269.553973,282.899747 279.747122,278.882062 283.265037,262.082712 L333.643441,25.6777097 C338.801309,5.08545096 325.760762,-4.25423245 312.24983,1.85397351 L16.4286611,115.442445 C-3.76390399,123.507631 -3.6461795,134.725802 12.7479794,139.724398 L88.6623606,163.319026 L264.412228,52.9059654 C272.708989,47.8959012 280.323716,50.5894192 274.073825,56.1129775" id="Shape" fill="url(#linearGradient-1)" fill-rule="nonzero"></path>
                    <path d="M296.293836,8.0012001 L127.599547,72.6610587 C127.599547,72.6610587 78.2892308,91.883038 52.7012919,101.647352 C35.3282185,108.276887 25.8222743,111.778711 15.3275387,115.946165 C4.83280321,120.11362 -12.7073954,133.198478 15.7867285,140.561198 C35.3398411,146.820352 47.2903224,150.373014 47.2903224,150.373014" id="Rectangle" fill="#2531BA"></path>
                    <path d="M265.050735,52.6014876 L88.7677565,163.293052 C88.7677565,163.293052 42.5991543,149.040882 6.86024796,137.428588 C0.920626803,134.12228 -2.54506573,128.27037 6.00521696,123.831904 C127.833787,84.6235615 265.050735,52.6014876 265.050735,52.6014876 Z" id="Triangle" fill="#DA5353"></path>
                    <path d="M328.822516,48.3342723 L308.330837,144.515894 C308.330837,144.515894 294.72232,207.121854 284.220599,259.491604 C281.153164,274.809319 272.996934,284.929122 254.864871,274.809319 C234.286722,259.491604 210.067719,241.678288 210.067719,241.678288" id="Rectangle" fill="#2531BA"></path>
                    <path d="M322.13765,22.1831648 C297.491049,57.1149139 272.086547,92.5157272 272.086547,92.5157272 C272.086547,92.5157272 272.641388,79.507724 272.745666,66.7753308 C272.778823,62.726884 272.921089,60.4479579 272.921089,58.5335813 L272.921089,57.1149139 C272.921089,57.1149139 273.804894,56.3919504 274.068907,56.125051 C274.620935,55.5669869 275.613675,54.6126502 275.894177,54.0504415 C276.231106,53.3751337 276.090476,53.7405763 276.146567,53.5917228 C276.540271,52.5469168 276.334864,51.9676364 276.231106,51.7885921 C276.127349,51.6095478 276.095714,51.5422232 276.017225,51.4409832 C275.938737,51.3397433 275.846146,51.1508197 275.635036,51.0268391 C274.726461,50.4932498 275.259115,50.7729706 275.123251,50.7116647 C274.987388,50.6503588 274.236369,50.4619612 273.767482,50.382184 C273.155659,50.2780875 271.265964,50.2073481 267.641946,51.3526651 C266.765927,51.6295178 265.914679,52.1973336 265.032041,52.5469168 C264.149403,52.8964999 262.351764,53.3896248 260.9801,53.8047333 C258.691513,54.4973317 253.855075,55.6682783 251.041759,56.5487907 C239.968277,60.0145725 230.881026,62.3608316 230.881026,62.3608316 C230.881026,62.3608316 272.086547,35.4302035 310.541724,10.1919725 C332.795235,-3.08497243 336.267346,2.44370054 322.13765,22.1831648 Z" id="Triangle-2" fill="#2531BA"></path>
                    <path d="M272.955268,57.0182102 L131.767406,183.851082 L256.620271,275.871954 C266.766922,279.358698 268.212222,259.400662 267.917053,248.938094" id="Triangle" fill="#DA5353"></path>
                </g>
                <g id="MANDALO!" style="mix-blend-mode: multiply;" fill-opacity="1" fill="#4D4848">
                    <use filter="url(#filter-3)" xlink:href="#text-2"></use>
                    <use xlink:href="#text-2"></use>
                </g>
            </g>
        </g>
    </g>
</svg>